<?xml version="1.0" encoding="utf-8"?>
<!-- Generator: Adobe Illustrator 24.0.0, SVG Export Plug-In . SVG Version: 6.00 Build 0)  -->
<svg version="1.1" id="Layer_1" xmlns="http://www.w3.org/2000/svg" xmlns:xlink="http://www.w3.org/1999/xlink" x="0px" y="0px"
	 viewBox="0 0 1000 1000" style="enable-background:new 0 0 1000 1000;" xml:space="preserve">
<style type="text/css">
	.st0{fill:#CE2424;}
	.st1{opacity:0.7;fill:url(#SVGID_1_);}
	.st2{fill:none;stroke:#000000;stroke-miterlimit:10;}
	.st3{fill:url(#SVGID_2_);}
	.st4{fill:url(#SVGID_3_);}
	.st5{fill:url(#SVGID_4_);}
	.st6{fill:#2EB8FF;}
	.st7{fill:url(#SVGID_5_);}
	.st8{fill:url(#SVGID_6_);}
	.st9{fill:url(#SVGID_7_);}
	.st10{fill:url(#SVGID_8_);}
	.st11{fill:url(#SVGID_9_);}
	.st12{fill:url(#SVGID_10_);}
	.st13{fill:url(#SVGID_11_);}
	.st14{fill:url(#SVGID_12_);}
	.st15{fill:url(#SVGID_13_);}
	.st16{fill:url(#SVGID_14_);}
	.st17{fill:url(#SVGID_15_);}
	.st18{fill:url(#SVGID_16_);}
	.st19{fill:url(#SVGID_17_);}
</style>
<g>
	<g>
		<linearGradient id="SVGID_1_" gradientUnits="userSpaceOnUse" x1="403.3103" y1="589.0863" x2="406.2867" y2="589.0863">
			<stop  offset="0" style="stop-color:#00A99D"/>
			<stop  offset="1" style="stop-color:#FFFFFF"/>
		</linearGradient>
		<path style="fill:url(#SVGID_1_);" d="M406.29,588.23l-2.98,1.72C404.31,589.39,405.31,588.82,406.29,588.23z"/>
		<linearGradient id="SVGID_2_" gradientUnits="userSpaceOnUse" x1="218.2533" y1="512.8256" x2="692.7357" y2="512.8256">
			<stop  offset="0" style="stop-color:#00A99D"/>
			<stop  offset="1" style="stop-color:#FFFFFF"/>
		</linearGradient>
		<path class="st3" d="M645.55,458.39c-8.76,0-17.03,2.08-24.36,5.76c-1.93,0.97-3.79,2.04-5.57,3.22l-113.81,65.71l-95.53,55.15
			c-0.98,0.59-1.97,1.16-2.98,1.72c-12.62,6.98-27.12,10.95-42.56,10.95c-48.64,0-88.07-39.43-88.07-88.07
			c0-48.64,39.43-88.07,88.07-88.07c31.3,0,60.25-10.1,83.76-27.21c10.63-7.73,20.15-16.9,28.27-27.21H360.75
			c-31.3,0-60.25,10.1-83.76,27.21c-10.63,7.73-20.15,16.9-28.27,27.21c-19.08,24.24-30.47,54.83-30.47,88.07
			c0,59.96,37.04,111.27,89.48,132.3c16.39,6.57,34.28,10.2,53.02,10.2c25.07,0,48.62-6.48,69.08-17.85l4.29-2.48l164.34-94.88
			l94.27-54.43C683.33,469.38,665.73,458.39,645.55,458.39z"/>
	</g>
	<g>
		<linearGradient id="SVGID_3_" gradientUnits="userSpaceOnUse" x1="593.7133" y1="423.7392" x2="596.6897" y2="423.7392">
			<stop  offset="0" style="stop-color:#00A99D"/>
			<stop  offset="1" style="stop-color:#FFFFFF"/>
		</linearGradient>
		<path class="st4" d="M593.71,424.6l2.98-1.72C595.69,423.43,594.69,424.01,593.71,424.6z"/>
		<linearGradient id="SVGID_4_" gradientUnits="userSpaceOnUse" x1="307.2643" y1="500" x2="781.7467" y2="500">
			<stop  offset="0" style="stop-color:#00A99D"/>
			<stop  offset="1" style="stop-color:#FFFFFF"/>
		</linearGradient>
		<path class="st5" d="M354.45,554.43c8.76,0,17.03-2.08,24.36-5.76c1.93-0.97,3.79-2.04,5.57-3.22l113.81-65.71l95.53-55.15
			c0.98-0.59,1.97-1.16,2.98-1.72c12.62-6.98,27.12-10.95,42.56-10.95c48.64,0,88.07,39.43,88.07,88.07
			c0,48.64-39.43,88.07-88.07,88.07c-31.3,0-60.25,10.1-83.76,27.21c-10.63,7.73-20.15,16.9-28.27,27.21h112.03
			c31.3,0,60.25-10.1,83.76-27.21c10.63-7.73,20.15-16.9,28.27-27.21c19.08-24.24,30.47-54.83,30.47-88.07
			c0-59.96-37.04-111.27-89.48-132.3c-16.39-6.57-34.28-10.2-53.02-10.2c-25.07,0-48.62,6.48-69.08,17.85l-4.29,2.48l-164.34,94.88
			l-94.27,54.43C316.67,543.44,334.27,554.43,354.45,554.43z"/>
	</g>
</g>
</svg>
