<?xml version="1.0" encoding="utf-8"?>
<!-- Generator: Adobe Illustrator 24.0.0, SVG Export Plug-In . SVG Version: 6.00 Build 0)  -->
<svg version="1.1" id="Layer_1" xmlns="http://www.w3.org/2000/svg" xmlns:xlink="http://www.w3.org/1999/xlink" x="0px" y="0px"
	 viewBox="0 0 1000 1000" style="enable-background:new 0 0 1000 1000;" xml:space="preserve">
<style type="text/css">
	.st0{fill:url(#SVGID_1_);}
</style>
<linearGradient id="SVGID_1_" gradientUnits="userSpaceOnUse" x1="498.5297" y1="424.6235" x2="501.6945" y2="630.8652">
	<stop  offset="0" style="stop-color:#FF5D43"/>
	<stop  offset="1" style="stop-color:#FE3574"/>
</linearGradient>
<path class="st0" d="M579.55,474.43c0-0.77-0.02-1.53-0.05-2.29c-0.56-19.68-8.29-37.6-20.69-51.21c-1.36-1.49-2.79-2.92-4.25-4.3
	c-7.01-6.61-15.2-11.97-24.24-15.7c-9.33-3.86-19.55-6-30.26-6c-9.66,0-18.93,1.74-27.5,4.91c-0.93,0.34-1.85,0.71-2.76,1.09
	c-9.04,3.73-17.23,9.09-24.24,15.7c-15.37,14.51-25,35.04-25,57.8v1v70.52v18.02c-0.06,0.85-0.09,1.7-0.09,2.56
	c0,0.89,0.04,1.76,0.09,2.63c0.53,8.2,3.51,15.62,8.24,21.57c6.37,7.99,15.89,13.3,26.87,14.2c1.1,0.09,2.22,0.15,3.34,0.15
	c1.1,0,2.18-0.06,3.25-0.15c3.59-0.3,7.05-1.09,10.29-2.32c6.44-2.43,12.06-6.52,16.33-11.77c2.65-3.24,4.77-6.93,6.26-10.92
	c1.55-4.18,2.41-8.69,2.41-13.4v-12.66c0.83,0.03,1.66,0.06,2.5,0.06c1.68,0,3.34-0.07,4.99-0.17c19.11-1.19,36.4-9.16,49.51-21.53
	c1.47-1.38,2.89-2.81,4.25-4.3c12.4-13.61,20.13-31.53,20.69-51.21C579.53,475.96,579.55,475.19,579.55,474.43z M460.89,579.93
	h-3.87c-0.49-0.07-0.97-0.16-1.44-0.27c-5.45-1.32-9.4-5.76-10.03-11.51v-3.19V545.7c0.41-0.27,0.82-0.52,1.24-0.76
	c-0.41-0.23-0.82-0.46-1.24-0.67v-12.05c3.75,3.54,7.84,6.71,12.22,9.48c3.29,2.08,6.74,3.92,10.34,5.5
	c1.46,0.64,2.94,1.26,4.44,1.82v17.51c0,6.23-4.23,11.48-9.97,13.05C462.03,579.73,461.46,579.85,460.89,579.93z M481.8,444.39
	c-5.83,8.57-9.25,18.91-9.25,30.03v1v36.05v9.97c-3.68-2.16-7.09-4.74-10.15-7.68c-9.92-9.5-16.26-22.69-16.8-37.34
	c-0.02-0.44-0.03-0.89-0.03-1.34c0-0.22-0.02-0.44-0.02-0.67c0-14.5,5.7-27.69,14.97-37.46c3.53-3.72,7.58-6.95,12.03-9.56
	c7.4-4.35,15.91-7,25-7.41c0.83-0.04,1.66-0.06,2.5-0.06c4.66,0,9.18,0.59,13.5,1.69v0.79c-5.75,1.38-11.14,3.69-16,6.77
	C491.31,433.12,485.94,438.31,481.8,444.39z M500.05,528.93c-0.84,0-1.67-0.03-2.5-0.06v-9.19v-44.24v-1
	c0-11.23,6.53-20.97,16-25.61c3.78-1.85,8.02-2.89,12.5-2.89s8.72,1.04,12.5,2.89c9.47,4.64,16,14.37,16,25.61
	c0,10.44-2.96,20.2-8.07,28.5c-7.05,11.44-18.2,20.07-31.38,23.87c-0.52,0.15-1.03,0.3-1.55,0.44
	C509.23,528.34,504.71,528.93,500.05,528.93z"/>
</svg>
