<?xml version="1.0" encoding="utf-8"?>
<!-- Generator: Adobe Illustrator 24.0.0, SVG Export Plug-In . SVG Version: 6.00 Build 0)  -->
<svg version="1.1" id="Layer_1" xmlns="http://www.w3.org/2000/svg" xmlns:xlink="http://www.w3.org/1999/xlink" x="0px" y="0px"
	 viewBox="0 0 1000 1000" style="enable-background:new 0 0 1000 1000;" xml:space="preserve">
<style type="text/css">
	.st0{fill:#CE2424;}
	.st1{opacity:0.7;fill:url(#SVGID_1_);}
	.st2{fill:none;stroke:#000000;stroke-miterlimit:10;}
	.st3{fill:url(#SVGID_2_);}
	.st4{fill:url(#SVGID_3_);}
	.st5{fill:url(#SVGID_4_);}
	.st6{fill:#2EB8FF;}
	.st7{fill:url(#SVGID_5_);}
	.st8{fill:url(#SVGID_6_);}
	.st9{fill:url(#SVGID_7_);}
	.st10{fill:url(#SVGID_8_);}
	.st11{fill:url(#SVGID_9_);}
	.st12{fill:url(#SVGID_10_);}
	.st13{fill:url(#SVGID_11_);}
	.st14{fill:url(#SVGID_12_);}
	.st15{fill:url(#SVGID_13_);}
	.st16{fill:url(#SVGID_14_);}
	.st17{fill:url(#SVGID_15_);}
	.st18{fill:url(#SVGID_16_);}
	.st19{fill:url(#SVGID_17_);}
</style>
<g>
	<g>
		<linearGradient id="SVGID_1_" gradientUnits="userSpaceOnUse" x1="493.8861" y1="594.7825" x2="498.9337" y2="594.7825">
			<stop  offset="0" style="stop-color:#29ABE2"/>
			<stop  offset="1" style="stop-color:#FFFFFF"/>
		</linearGradient>
		<path style="fill:url(#SVGID_1_);" d="M493.89,587.02l5.05,15.53C497.61,597.22,495.91,592.03,493.89,587.02z"/>
		<g>
			<linearGradient id="SVGID_2_" gradientUnits="userSpaceOnUse" x1="267.4284" y1="500" x2="502.4174" y2="500">
				<stop  offset="0" style="stop-color:#29ABE2"/>
				<stop  offset="1" style="stop-color:#FFFFFF"/>
			</linearGradient>
			<path class="st3" d="M498.93,602.55l-5.05-15.53l-70.85-218.05l-38.18-117.49l-38.18,117.49l-71.4,219.75
				c-1.51,3.92-2.82,7.93-3.91,12.04c-2.57,9.66-3.94,19.8-3.94,30.27c0,35.85,16.06,67.95,41.38,89.5c20.5,17.46,47.08,28,76.12,28
				c28.99,0,55.53-10.51,76.02-27.92c25.37-21.55,41.47-53.68,41.47-89.58C502.42,621.21,501.2,611.67,498.93,602.55z
				 M384.92,675.91c-24.79,0-44.88-20.09-44.88-44.88c0-3.58,0.43-7.06,1.22-10.4l2.28-7l32.41-99.76l8.91-27.42l8.91,27.41
				l32.1,98.78l3.01,9.27c0.61,2.94,0.93,5.99,0.93,9.11C429.8,655.82,409.71,675.91,384.92,675.91z"/>
		</g>
	</g>
	<linearGradient id="SVGID_3_" gradientUnits="userSpaceOnUse" x1="399.9742" y1="386.2692" x2="732.5717" y2="386.2692">
		<stop  offset="0" style="stop-color:#29ABE2"/>
		<stop  offset="1" style="stop-color:#FFFFFF"/>
	</linearGradient>
	<path class="st4" d="M723.69,324.09c-17.63-42.62-59.62-72.61-108.61-72.61H498.07h-10.5h-87.59l23.59,72.61h64h10.5h8.4h108.61
		c24.79,0,44.88,20.09,44.88,44.88c0,24.79-20.09,44.88-44.88,44.88H506.47h-8.4h-10.5h-34.84l23.59,72.61l11.24,34.6v-34.6h10.5
		h117.01c48.99,0,90.98-29.99,108.61-72.61c5.72-13.83,8.88-28.98,8.88-44.88C732.57,353.07,729.41,337.92,723.69,324.09z"/>
</g>
</svg>
